<?xml version="1.0" encoding="utf-8"?>
<!-- Generator: Adobe Illustrator 23.0.1, SVG Export Plug-In . SVG Version: 6.00 Build 0)  -->
<svg version="1.1" id="Layer_1" xmlns="http://www.w3.org/2000/svg" xmlns:xlink="http://www.w3.org/1999/xlink" x="0px" y="0px"
	 viewBox="0 0 513 84" style="enable-background:new 0 0 513 84;" xml:space="preserve">
<style type="text/css">
	.st0{fill:#606060;}
</style>
<g id="XMLID_1_">
	<path id="XMLID_148_" class="st0" d="M9.6,36.5c0.1-3.5,0.9-5.3,2.9-6.5c2.1-1.2,4.6-1.6,11.5-1.6c9.1,0,11.9,0.5,14.2,2.3
		c2,1.6,2.5,3.4,2.5,8.3v16.4h-4v-3.6c-1.4,3.4-3.4,4-12.5,4c-8.8,0-11.3-0.3-13.2-1.7c-2-1.4-2.7-3.2-2.7-6.6
		c0-3.3,0.7-5.3,2.3-6.4c1.9-1.3,5.1-1.7,12.9-1.7c6.2,0,8.7,0.2,10.2,0.8c1.5,0.6,2.3,1.4,2.9,2.8v-2.8c0-7.7-1-8.4-12.7-8.4
		c-8.8,0-10.2,0.6-10.2,4.7L9.6,36.5L9.6,36.5z M12.5,47.7c0,2.3,0.9,3.8,2.6,4.2c1.6,0.5,3.5,0.6,9.3,0.6c5.3,0,7.7-0.2,9.2-0.7
		c2.3-0.7,3.2-2.1,3.2-4.4c0-1.7-0.7-2.9-2.2-3.7c-1.2-0.6-4.1-0.9-9.8-0.9C14.3,42.7,12.5,43.4,12.5,47.7z"/>
	<path id="XMLID_151_" class="st0" d="M82.4,45.7c-0.2,3.6-0.6,5-2,6.6c-2.2,2.6-5.8,3.5-14.7,3.5c-7.8,0-11.4-0.7-13.4-2.6
		c-2.3-2-3.2-5.3-3.2-11.1c0-5.7,0.9-9,3.2-11c2.1-2,5.6-2.6,13.4-2.6c7.9,0,11.5,0.7,13.7,2.6c1.7,1.6,2.6,3.5,2.8,6.5v0.6h-4.4
		v-0.6c-0.1-1.7-0.5-2.9-1.5-3.8c-1.6-1.5-4.1-2-11-2c-6.8,0-8.9,0.5-10.4,2.4c-1.1,1.4-1.6,3.9-1.6,7.9c0,4.5,0.6,7,2,8.4
		c1.6,1.6,3.6,2,10.5,2c7.4,0,9.7-0.5,11.3-2.5c0.7-1,1-2.1,1.1-4.2L82.4,45.7L82.4,45.7z"/>
	<path id="XMLID_153_" class="st0" d="M122.8,45.7c-0.2,3.6-0.6,5-2,6.6c-2.2,2.6-5.8,3.5-14.7,3.5c-7.8,0-11.4-0.7-13.4-2.6
		c-2.3-2-3.2-5.3-3.2-11.1c0-5.7,0.9-9,3.2-11c2.1-2,5.6-2.6,13.4-2.6c7.9,0,11.5,0.7,13.7,2.6c1.7,1.6,2.6,3.5,2.8,6.5v0.6H118
		v-0.6c-0.1-1.7-0.5-2.9-1.5-3.8c-1.6-1.5-4.1-2-11-2c-6.8,0-8.9,0.5-10.4,2.4c-1.1,1.4-1.6,3.9-1.6,7.9c0,4.5,0.6,7,2,8.4
		c1.6,1.6,3.6,2,10.5,2c7.4,0,9.7-0.5,11.3-2.5c0.7-1,1-2.1,1.1-4.2L122.8,45.7L122.8,45.7z"/>
	<path id="XMLID_155_" class="st0" d="M134,42.9c0,4.6,0.3,5.9,1.7,7.3c1.7,1.9,3.8,2.3,11.3,2.3c9.5,0,11.8-1,12.4-5h4.1
		c-0.2,2.4-0.8,4-2.3,5.3c-2.3,2.3-6,3-14.5,3c-7.7,0-11.5-0.7-13.7-2.6c-2.3-2-3.3-5.3-3.3-11c0-5.8,1-9.1,3.3-11.1
		c2.2-1.9,6-2.6,13.6-2.6c8.9,0,12.6,1,14.7,3.9c1.6,2.1,2.1,4.8,2.1,10.5L134,42.9L134,42.9z M159.2,39.6c-0.1-2.1-0.2-3.2-0.8-4.3
		c-1.5-2.8-3.7-3.5-11.8-3.5c-8.2,0-10.4,0.7-11.9,3.5c-0.6,1.1-0.7,2.1-0.8,4.3H159.2z"/>
	<path id="XMLID_158_" class="st0" d="M199,35.7c0-3.3-1.8-3.9-11-3.9c-11,0-12.9,0.7-12.9,4.5c0,1.7,0.6,2.7,1.9,3.2
		c1.1,0.5,2.8,0.5,10.2,0.6c10.1,0.1,11.6,0.2,13.8,1.4c2.1,1.1,2.9,2.9,2.9,6.3c0,3.8-1.1,5.9-3.6,6.9c-2.4,1-5,1.2-13.2,1.2
		c-9,0-11.8-0.3-13.8-1.6c-2.1-1.4-2.8-3-2.8-7.1v-0.7h4.1v0.7c0,2.7,0.2,3.4,1.4,4.1c1.5,1,4.3,1.2,12.2,1.2
		c10.3,0,11.6-0.5,11.6-4.6c0-2.4-0.6-3.4-2.3-3.9c-1.4-0.5-1.4-0.5-16.8-0.6c-4.6-0.1-6.8-0.6-8.2-2c-1-1-1.6-2.8-1.6-5.2
		c0-3.2,1-5.3,3-6.3c2.3-1.2,5.5-1.6,12.7-1.6c9.3,0,12.1,0.4,14.2,2c1.5,1.1,2.1,2.8,2.1,5.5v0.5h-4v-0.6H199z"/>
	<path id="XMLID_160_" class="st0" d="M239.5,35.7c0-3.3-1.8-3.9-11-3.9c-11,0-12.9,0.7-12.9,4.5c0,1.7,0.6,2.7,1.9,3.2
		c1.1,0.5,2.8,0.5,10.2,0.6c10.1,0.1,11.6,0.2,13.8,1.4c2.1,1.1,2.9,2.9,2.9,6.3c0,3.8-1.1,5.9-3.6,6.9c-2.4,1-5,1.2-13.2,1.2
		c-9,0-11.8-0.3-13.8-1.6c-2.1-1.4-2.8-3-2.8-7.1v-0.7h4.1v0.7c0,2.7,0.2,3.4,1.4,4.1c1.5,1,4.3,1.2,12.2,1.2
		c10.3,0,11.6-0.5,11.6-4.6c0-2.4-0.6-3.4-2.3-3.9c-1.4-0.5-1.4-0.5-16.8-0.6c-4.6-0.1-6.8-0.6-8.2-2c-1-1-1.6-2.8-1.6-5.2
		c0-3.2,1-5.3,3-6.3c2.3-1.2,5.5-1.6,12.7-1.6c9.3,0,12.1,0.4,14.2,2c1.5,1.1,2.1,2.8,2.1,5.5v0.5h-4v-0.6H239.5z"/>
</g>
<g id="XMLID_2_">
	<path id="XMLID_138_" class="st0" d="M326.1,15.8c2.8,3,3.5,6.4,3.5,18.5s-0.7,15.6-3.5,18.5c-3.4,3.5-6.8,4-24.9,4
		s-21.5-0.5-24.9-4c-2.8-3-3.5-6.4-3.5-18.5s0.7-15.6,3.5-18.5c3.4-3.5,6.8-4,25.1-4C319.3,11.8,322.7,12.4,326.1,15.8z M280.6,19.1
		c-1.9,1.9-2.3,5.1-2.3,15.2s0.5,13.2,2.3,15.2c2.3,2.4,5,2.7,20.6,2.7s18.3-0.4,20.6-2.7c1.9-1.9,2.3-5.1,2.3-15.2
		s-0.5-13.3-2.3-15.2c-2.1-2.3-5.8-2.7-20.3-2.7C286.3,16.4,282.8,16.9,280.6,19.1z"/>
	<path id="XMLID_141_" class="st0" d="M344.3,42.6v1.2c0,4.4,0.9,6.2,3.8,7.1c2.6,0.9,7.5,1.3,15.4,1.3c17.3,0,20.4-1.3,20.4-8.7
		c0-3.7-1.1-5.4-4.1-6.2c-2.9-0.8-3.2-0.8-22.9-0.9c-8-0.1-11.4-0.7-14.2-2.4c-2.6-1.8-3.7-4.2-3.7-8.6c0-6.6,2.4-10.4,7.6-11.9
		c3.8-1.1,9.6-1.7,18.7-1.7c10.2,0,15.4,0.7,18.5,2.6c3.2,2,4.2,4.3,4.4,10.5H383c-0.1-3.5-0.7-5.1-2.1-6.2
		c-2.1-1.6-6.6-2.3-15.6-2.3c-17.4,0-20.8,1.4-20.8,8.5c0,3,0.9,4.8,2.7,5.6c2.3,1.1,4.3,1.2,16.8,1.3c14,0.1,17.1,0.3,20.3,1.9
		c3.6,1.7,5,4.7,5,10.2c0,6.1-2.1,9.7-6.4,11.4c-3.2,1.2-8.3,1.7-18.5,1.7c-10.7,0-15.8-0.5-19.3-1.7c-4-1.4-6.2-4.8-6.2-9.5v-3h5.4
		V42.6z"/>
	<path id="XMLID_143_" class="st0" d="M399.9,12.2h5.3V52h35v4.4h-40.3V12.2z"/>
	<path id="XMLID_145_" class="st0" d="M500.2,15.8c2.8,3,3.5,6.4,3.5,18.5s-0.7,15.6-3.5,18.5c-3.4,3.5-6.8,4-24.9,4
		s-21.5-0.5-24.9-4c-2.8-3-3.5-6.4-3.5-18.5s0.7-15.6,3.5-18.5c3.4-3.5,6.8-4,25.1-4C493.4,11.8,496.8,12.4,500.2,15.8z M454.7,19.1
		c-1.9,1.9-2.3,5.1-2.3,15.2s0.5,13.2,2.3,15.2c2.3,2.4,5,2.7,20.6,2.7s18.3-0.4,20.6-2.7c1.9-1.9,2.3-5.1,2.3-15.2
		s-0.5-13.3-2.3-15.2c-2.1-2.3-5.8-2.7-20.3-2.7C460.4,16.4,456.9,16.9,454.7,19.1z"/>
</g>
<g id="XMLID_6_">
	<path id="XMLID_56_" class="st0" d="M276.4,68.6c0,1.7,0.1,2.2,0.6,2.8c0.7,0.7,1.4,0.9,4.3,0.9c3.6,0,4.5-0.4,4.7-1.9h1.6
		c-0.1,0.9-0.3,1.5-0.9,2c-0.9,0.9-2.3,1.2-5.5,1.2c-2.9,0-4.3-0.3-5.2-1c-0.9-0.8-1.2-2-1.2-4.2s0.4-3.4,1.2-4.2
		c0.8-0.7,2.3-1,5.2-1c3.4,0,4.8,0.4,5.6,1.5c0.6,0.8,0.8,1.8,0.8,4L276.4,68.6L276.4,68.6L276.4,68.6z M285.9,67.3
		c0-0.8-0.1-1.2-0.3-1.6c-0.6-1.1-1.4-1.3-4.5-1.3c-3.1,0-3.9,0.3-4.5,1.3c-0.2,0.4-0.3,0.8-0.3,1.6H285.9z"/>
	<path id="XMLID_60_" class="st0" d="M294.4,68l-4.9-4.8h2l4,4l4-4h2l-4.9,4.8l5.6,5.3h-2l-4.7-4.5l-4.8,4.5h-2L294.4,68z"/>
	<path id="XMLID_101_" class="st0" d="M305,68.6c0,1.7,0.1,2.2,0.6,2.8c0.7,0.7,1.4,0.9,4.3,0.9c3.6,0,4.5-0.4,4.7-1.9h1.6
		c-0.1,0.9-0.3,1.5-0.9,2c-0.9,0.9-2.3,1.2-5.5,1.2c-2.9,0-4.3-0.3-5.2-1c-0.9-0.8-1.2-2-1.2-4.2s0.4-3.4,1.2-4.2
		c0.8-0.7,2.3-1,5.2-1c3.4,0,4.8,0.4,5.6,1.5c0.6,0.8,0.8,1.8,0.8,4L305,68.6L305,68.6z M314.5,67.3c0-0.8-0.1-1.2-0.3-1.6
		c-0.6-1.1-1.4-1.3-4.5-1.3s-3.9,0.3-4.5,1.3c-0.2,0.4-0.3,0.8-0.3,1.6H314.5z"/>
	<path id="XMLID_104_" class="st0" d="M331.5,69.6c-0.1,1.4-0.2,1.9-0.8,2.5c-0.8,1-2.2,1.3-5.6,1.3c-3,0-4.3-0.3-5.1-1
		c-0.9-0.8-1.2-2-1.2-4.2s0.3-3.4,1.2-4.2c0.8-0.7,2.1-1,5.1-1s4.3,0.3,5.2,1c0.7,0.6,1,1.3,1,2.5v0.2h-1.7v-0.2
		c0-0.7-0.2-1.1-0.6-1.4c-0.6-0.6-1.5-0.7-4.2-0.7c-2.6,0-3.4,0.2-3.9,0.9c-0.4,0.5-0.6,1.5-0.6,3c0,1.7,0.2,2.7,0.7,3.2
		c0.6,0.6,1.4,0.7,4,0.7c2.8,0,3.7-0.2,4.3-1c0.3-0.4,0.4-0.8,0.4-1.6C329.7,69.6,331.5,69.6,331.5,69.6z"/>
	<path id="XMLID_106_" class="st0" d="M346.5,73.3H345v-2c-0.7,1.8-1.7,2.3-5.4,2.3c-2.2,0-3.3-0.2-4.1-0.8
		c-0.8-0.6-1.1-1.5-1.1-3.2v-6.3h1.5v6.3c0,2.2,0.7,2.7,4.1,2.7c3.6,0,5-0.8,5-3v-5.9h1.5V73.3z"/>
	<path id="XMLID_108_" class="st0" d="M348,63.2h2.4V61h1.5v2.2h6.9v1.3H352l-0.1,5v0.2c0,2.1,0.5,2.5,3.2,2.5
		c1.4,0,2.1-0.2,2.4-0.8c0.2-0.3,0.3-0.6,0.3-2.1V69h1.4v0.4c0,2-0.1,2.5-0.5,3.1c-0.6,0.7-1.7,1-3.6,1c-2.1,0-3.1-0.2-3.8-0.9
		c-0.7-0.6-0.8-1.1-0.8-2.6v-0.5l0.1-5H348V63.2z"/>
	<path id="XMLID_110_" class="st0" d="M361.8,59h1.5v1.9h-1.5V59z M361.8,63.2h1.5v10.1h-1.5V63.2z"/>
	<path id="XMLID_113_" class="st0" d="M367,63.2l5.2,9l5.2-9h1.7l-5.8,10.1h-2.2l-5.8-10.1C365.3,63.2,367,63.2,367,63.2z"/>
	<path id="XMLID_115_" class="st0" d="M381.8,68.6c0,1.7,0.1,2.2,0.6,2.8c0.7,0.7,1.4,0.9,4.3,0.9c3.6,0,4.5-0.4,4.7-1.9h1.6
		c-0.1,0.9-0.3,1.5-0.9,2c-0.9,0.9-2.3,1.2-5.5,1.2c-2.9,0-4.3-0.3-5.2-1c-0.9-0.8-1.2-2-1.2-4.2s0.4-3.4,1.2-4.2
		c0.8-0.7,2.3-1,5.2-1c3.4,0,4.8,0.4,5.6,1.5c0.6,0.8,0.8,1.8,0.8,4L381.8,68.6L381.8,68.6z M391.4,67.3c0-0.8-0.1-1.2-0.3-1.6
		c-0.6-1.1-1.4-1.3-4.5-1.3s-3.9,0.3-4.5,1.3c-0.2,0.4-0.3,0.8-0.3,1.6H391.4z"/>
	<path id="XMLID_118_" class="st0" d="M401.4,59h1.5v6.3c0.2-0.7,0.6-1.2,1.2-1.5c0.8-0.4,1.9-0.6,4.2-0.6c2.2,0,3.3,0.2,4.1,0.8
		c0.8,0.6,1.1,1.4,1.1,3.1v6.3H412V67c0-2.2-0.7-2.6-4.1-2.6c-3.6,0-4.9,0.8-4.9,3v5.9h-1.5V59H401.4z"/>
	<path id="XMLID_120_" class="st0" d="M416.9,66.1c0-1.3,0.3-2,1.1-2.5c0.8-0.5,1.7-0.6,4.3-0.6c3.4,0,4.5,0.2,5.4,0.9
		c0.7,0.6,1,1.3,1,3.1v6.2h-1.5v-1.4c-0.5,1.3-1.3,1.5-4.7,1.5c-3.3,0-4.3-0.1-5-0.6s-1-1.2-1-2.5c0-1.2,0.3-2,0.9-2.4
		c0.7-0.5,1.9-0.7,4.9-0.7c2.4,0,3.3,0.1,3.9,0.3c0.6,0.2,0.9,0.5,1.1,1.1v-1.1c0-2.9-0.4-3.2-4.8-3.2c-3.3,0-3.9,0.2-3.9,1.8h-1.7
		L416.9,66.1L416.9,66.1z M418,70.4c0,0.9,0.3,1.4,1,1.6c0.6,0.2,1.3,0.2,3.5,0.2c2,0,2.9-0.1,3.5-0.3c0.9-0.3,1.2-0.8,1.2-1.7
		c0-0.7-0.3-1.1-0.8-1.4c-0.5-0.2-1.5-0.3-3.7-0.3C418.7,68.5,418,68.8,418,70.4z"/>
	<path id="XMLID_123_" class="st0" d="M432.1,63.2h1.5v2c0.7-1.8,1.7-2.3,5.4-2.3c2.2,0,3.3,0.2,4.1,0.8c0.8,0.6,1.1,1.5,1.1,3.2
		v6.3h-1.5V67c0-2.2-0.7-2.7-4.1-2.7c-3.6,0-5,0.8-5,3v5.9h-1.5V63.2z"/>
	<path id="XMLID_125_" class="st0" d="M458.9,73.3v-1.5c-0.6,1.3-1.8,1.6-5,1.6c-3,0-4.4-0.3-5.2-1c-0.9-0.8-1.2-2-1.2-4.2
		s0.4-3.4,1.2-4.2c0.8-0.7,2.3-1,5.2-1c3.3,0,4.4,0.4,5,1.6V59h1.5v14.3H458.9z M449.6,65.3c-0.4,0.5-0.6,1.5-0.6,3
		c0,1.7,0.2,2.7,0.8,3.2c0.6,0.5,1.6,0.7,4.2,0.7c2.7,0,3.8-0.2,4.3-0.9c0.4-0.5,0.6-1.5,0.6-3c0-3.5-0.6-4-4.9-4
		C451.1,64.4,450.1,64.6,449.6,65.3z"/>
	<path id="XMLID_128_" class="st0" d="M463.8,59h1.5v14.3h-1.5V59z"/>
	<path id="XMLID_130_" class="st0" d="M468.7,59h1.5v1.9h-1.5V59z M468.7,63.2h1.5v10.1h-1.5V63.2z"/>
	<path id="XMLID_133_" class="st0" d="M473.6,63.2h1.5v2c0.7-1.8,1.7-2.3,5.4-2.3c2.2,0,3.3,0.2,4.1,0.8c0.8,0.6,1.1,1.5,1.1,3.2
		v6.3h-1.5V67c0-2.2-0.7-2.7-4.1-2.7c-3.6,0-5,0.8-5,3v5.9h-1.5V63.2z"/>
	<path id="XMLID_135_" class="st0" d="M501.9,72.3c0,2.8-0.3,3.9-1.2,4.7c-0.8,0.7-2.2,1-5.2,1s-4.3-0.2-5.1-0.9
		c-0.8-0.6-1.2-1.5-1.2-2.6v-0.2h1.6v0.2c0,0.6,0.2,1.1,0.6,1.5c0.6,0.5,1.5,0.7,4.2,0.7c3.1,0,4-0.2,4.5-1.3
		c0.3-0.7,0.4-1.2,0.4-3.7c-0.7,1.3-1.8,1.6-5,1.6c-3,0-4.4-0.3-5.2-1c-0.9-0.8-1.2-2-1.2-4.2s0.4-3.4,1.2-4.2c0.9-0.7,2.3-1,5.2-1
		c3.2,0,4.3,0.3,5,1.6V63h1.5L501.9,72.3L501.9,72.3z M491,65.3c-0.4,0.5-0.6,1.5-0.6,3c0,1.7,0.2,2.7,0.8,3.2
		c0.6,0.6,1.5,0.7,4.2,0.7c2.9,0,3.7-0.2,4.3-0.9c0.4-0.5,0.6-1.5,0.6-2.9c0-1.8-0.2-2.7-0.8-3.2c-0.6-0.6-1.5-0.7-4.1-0.7
		C492.4,64.4,491.6,64.5,491,65.3z"/>
</g>
</svg>
